<svg xmlns="http://www.w3.org/2000/svg" xml:space="preserve" style="enable-background:new 0 0 250 250" viewBox="0 0 250 250">
    <path d="M125 0C55.96 0 0 55.96 0 125c0 19.82 4.61 38.56 12.83 55.21l31.99-19.08L55.9 179.7l-.16.1-31.7 18.91C46.77 229.8 83.53 250 125 250c69.04 0 125-55.96 125-125S194.04 0 125 0zm65.01 49.64c7.05 5.41 13.37 11.98 18.65 19.63l-66.84 39.87c19.46-8.15 39.17-15.19 59.05-21.15 2.49 5.92 4.28 12 5.4 18.14-27.41 2.52-54.79 6.95-81.93 13.35-.48.11-.96.23-1.44.34-1.48.35-2.97.71-4.45 1.08-.22.06-.45.11-.67.17-1.82.45-3.65.91-5.47 1.38 0 0 .01 0 .01-.01-2.19.56-4.38 1.13-6.57 1.72 30.82-22.47 58.95-47.46 84.26-74.52zM58.85 178.02l-.13-.22h.01l-10.89-18.25h-.01l-.16-.26 52.53-31.34c34.4-9.04 69.23-14.89 104.1-17.66 2.65 7.72 4.15 15.66 4.57 23.58-51.18 3.68-102.31 18.12-150.02 44.15z" style="fill:#1a1a1a"></path>
</svg>